<svg xmlns="http://www.w3.org/2000/svg"  viewBox="0 0 50 50" width="50px" height="50px"><path d="M 4 0 L 4 48 L 25.142578 48 L 24.9375 48.726562 A 1.0001 1.0001 0 0 0 26.158203 49.966797 L 32.158203 48.367188 A 1.0001 1.0001 0 0 0 32.605469 48.109375 L 48.404297 32.410156 A 1.0001 1.0001 0 0 0 48.638672 32.060547 L 48.800781 31.900391 C 50.401781 30.299391 50.401781 27.700609 48.800781 26.099609 C 47.200781 24.499609 44.6 24.499609 43 26.099609 L 42.300781 26.800781 L 42.34375 26.84375 L 40 29.1875 L 40 14.599609 L 25.400391 0 L 4 0 z M 25 2.4003906 L 37.599609 15 L 25 15 L 25 2.4003906 z M 11 19 L 33 19 L 33 21 L 11 21 L 11 19 z M 11 25 L 33 25 L 33 27 L 11 27 L 11 25 z M 43.757812 28.257812 L 46.742188 31.242188 L 32.09375 45.796875 L 29.121094 42.892578 L 43.757812 28.257812 z M 11 31 L 33 31 L 33 33 L 11 33 L 11 31 z M 11 37 L 24 37 L 24 39 L 11 39 L 11 37 z M 28.146484 44.736328 L 30.259766 46.800781 L 27.341797 47.580078 L 28.146484 44.736328 z"/></svg>